<svg width="48" height="40" viewBox="0 0 48 40" xmlns="http://www.w3.org/2000/svg"><title>Twitter</title><path d="M48 4.735c-1.764.803-3.663 1.347-5.655 1.59 2.035-1.25 3.595-3.228 4.33-5.585-1.904 1.155-4.008 1.996-6.257 2.447C38.628 1.225 36.066 0 33.23 0c-5.434 0-9.843 4.52-9.843 10.098 0 .79.085 1.56.254 2.3C15.457 11.974 8.2 7.96 3.34 1.842 2.494 3.34 2.01 5.076 2.01 6.925c0 3.502 1.737 6.593 4.38 8.405-1.612-.05-3.133-.51-4.463-1.26v.124c0 4.894 3.395 8.977 7.903 9.9-.826.238-1.696.357-2.595.357-.634 0-1.254-.06-1.854-.178 1.255 4.01 4.89 6.93 9.2 7.01-3.37 2.71-7.618 4.324-12.23 4.324-.795 0-1.58-.047-2.35-.14C4.36 38.327 9.537 40 15.096 40c18.115 0 28.02-15.385 28.02-28.73 0-.44-.01-.878-.027-1.308 1.924-1.425 3.594-3.2 4.91-5.227" fill="#FFF" fill-rule="evenodd"/></svg>