<?xml version="1.0" encoding="UTF-8" standalone="no"?>
<svg width="156px" height="28px" viewBox="0 0 156 28" version="1.1" xmlns="http://www.w3.org/2000/svg" xmlns:xlink="http://www.w3.org/1999/xlink">
    <!-- Generator: Sketch 3.8.3 (29802) - http://www.bohemiancoding.com/sketch -->
    <title>Group 5</title>
    <desc>Created with Sketch.</desc>
    <defs></defs>
    <g id="Page-1" stroke="none" stroke-width="1" fill="none" fill-rule="evenodd">
        <g id="A4" transform="translate(-12.000000, -15.000000)" fill="#FFFFFF">
            <g id="Group-5" transform="translate(12.000000, 15.000000)">
                <path d="M11.8856724,5.01077625 L10.1926551,5.01077625 L10.1926551,16.5145568 C9.4325249,18.4750082 7.73950761,20.065563 5.63187384,20.065563 C2.90231535,20.065563 1.69301729,18.179091 1.69301729,15.6268053 L1.69301729,5.01077625 L0,5.01077625 L0,15.8857328 C0,19.3627597 1.83122278,21.7670868 5.32091148,21.7670868 C7.497648,21.7670868 9.25976803,20.3614802 10.1926551,18.807915 L10.1926551,21.43418 L11.8856724,21.43418 L11.8856724,5.01077625 Z M15.4162638,21.43418 L17.1438324,21.43418 L17.1438324,9.93039945 C17.9039626,7.9699481 19.6315313,6.37939323 21.7391651,6.37939323 C24.4687235,6.37939323 25.6780216,8.26586528 25.6780216,10.818151 L25.6780216,21.43418 L27.3710389,21.43418 L27.3710389,10.5592235 C27.3710389,7.08219655 25.5398161,4.67786942 22.0501274,4.67786942 C19.8733909,4.67786942 18.0767195,6.08347605 17.1438324,7.63704127 L17.1438324,5.01077625 L15.4162638,5.01077625 L15.4162638,21.43418 Z M44.8958937,7.26582373 C44.3097543,5.51542074 42.8598306,4.49160012 41.1322619,4.49160012 C38.9419517,4.49160012 37.492028,5.71357957 36.1346526,7.26582373 C36.0729537,6.07687075 35.6410615,4.9869972 35.4559649,4.45857365 L34.9932233,4.45857365 L30.4583556,5.77963251 L30.4583556,7.03463843 C32.1242253,7.10069137 32.5252681,7.43095609 32.5252681,9.8418885 L32.5252681,17.8012681 C32.5252681,19.683777 32.1550748,20.0470682 30.489205,20.1131211 L30.489205,21.43418 L38.1398662,21.43418 L38.1398662,20.1131211 C36.4739964,20.0470682 36.2888998,19.683777 36.2888998,17.9664005 L36.2888998,8.95017377 C37.2760819,8.12451199 38.2015651,7.43095609 39.6514888,7.43095609 C40.9163159,7.43095609 41.5024552,8.15753846 41.5024552,10.1391267 L41.5024552,17.9664005 C41.5024552,19.683777 41.3173586,20.0470682 39.6514888,20.1131211 L39.6514888,21.43418 L47.0245051,21.43418 L47.0245051,20.1131211 C45.5745814,20.0470682 45.2969364,19.683777 45.2969364,17.9664005 L45.2969364,8.78504142 C46.1915702,8.02543257 47.1479028,7.43095609 48.4744288,7.43095609 C49.7084064,7.43095609 50.3253952,8.15753846 50.3253952,10.1391267 L50.3253952,17.9664005 C50.3253952,19.683777 50.1402985,20.0470682 48.4744288,20.1131211 L48.4744288,21.43418 L56.0016922,21.43418 L56.0016922,20.1131211 C54.4283708,20.0470682 54.0890269,19.683777 54.0890269,17.8012681 L54.0890269,9.24741202 C54.0890269,6.07687075 52.2997594,4.49160012 49.9243525,4.49160012 C47.8574399,4.49160012 46.253269,5.6805531 44.8958937,7.26582373 L44.8958937,7.26582373 Z M71.4997585,13.0784827 C71.4997585,7.66214139 68.5999111,4.42554718 64.0650434,4.42554718 C59.5610251,4.42554718 56.5377799,7.82727374 56.5377799,13.1775621 C56.5377799,18.6599564 59.4376273,21.8304977 63.972495,21.8304977 C68.1680189,21.8304977 71.4997585,18.8911417 71.4997585,13.0784827 L71.4997585,13.0784827 Z M67.3967829,13.0784827 C67.3967829,17.7682417 66.2862031,20.0140417 64.0958928,20.0140417 C61.4736904,20.0140417 60.6407555,17.8342946 60.6407555,13.0454562 C60.6407555,8.35569729 61.5045398,6.30805605 63.972495,6.30805605 C66.2245042,6.30805605 67.3967829,8.15753846 67.3967829,13.0784827 L67.3967829,13.0784827 Z M78.4218468,8.48780317 C78.3909973,6.47318841 77.8974063,4.95397072 77.6814602,4.45857365 L77.2187186,4.45857365 L72.6838509,5.77963251 L72.6838509,7.03463843 C74.3497206,7.10069137 74.7507634,7.43095609 74.7507634,9.8418885 L74.7507634,17.8012681 C74.7507634,19.683777 74.3805701,20.0140417 72.7147003,20.1131211 L72.7147003,21.43418 L81.0440492,21.43418 L81.0440492,20.1131211 C78.8228895,20.0470682 78.5143951,19.683777 78.5143951,17.8012681 L78.5143951,12.3849268 C78.5143951,9.51162379 79.2239322,8.58688259 81.661038,8.58688259 C82.2780268,8.58688259 82.6173707,8.65293553 83.0184134,8.81806789 L83.7896494,4.59067954 C83.5428539,4.49160012 83.1418112,4.42554718 82.7407684,4.42554718 C81.0748987,4.42554718 79.4090289,5.9117384 78.4218468,8.48780317 L78.4218468,8.48780317 Z M94.2289067,4.88791778 L90.5269738,4.88791778 C90.5269738,3.20356773 90.6503716,1.18895297 90.8046188,0 L88.3983625,0.396317658 C87.6579759,1.65132357 87.1952343,3.33567362 86.9792882,4.85489131 L84.9123757,5.6805531 L84.9123757,7.10069137 L86.7633421,7.10069137 L86.7633421,17.2728446 C86.7633421,20.7406241 88.2441153,21.8965506 90.8354682,21.8965506 C92.2236931,21.8965506 93.3959718,21.5332594 94.5065517,20.8397035 L94.1363584,19.3865388 C93.4576707,19.6177241 92.9332302,19.74983 92.3779403,19.74983 C90.8354682,19.74983 90.5269738,18.9571946 90.5269738,16.4802093 L90.5269738,7.10069137 L93.7661651,7.10069137 L94.2289067,4.88791778 Z M101.87604,27.8413155 C106.071564,27.8413155 109.249056,25.9588066 109.249056,22.1937888 C109.249056,18.6599564 107.182144,17.5700828 103.387663,17.4710034 L100.487815,17.371924 C99.7474286,17.3388975 99.5006331,17.0416593 99.5006331,16.5792887 C99.5006331,15.9848122 100.086772,15.4563887 100.950557,15.1591504 L101.197352,15.1591504 C104.313146,15.1591504 107.829982,14.0032239 107.829982,10.1391267 C107.829982,8.685962 107.120445,7.62911491 106.225811,6.93555901 C106.997047,7.2988502 107.644885,7.46398256 108.323573,7.46398256 C109.187357,7.46398256 109.927744,7.16674431 110.668131,6.67134724 L109.341605,3.99620305 C108.47782,4.72278542 107.490638,5.31726191 106.503456,5.31726191 C105.793919,5.31726191 105.238629,5.15212955 104.467393,4.92094425 C103.54191,4.65673248 102.739824,4.45857365 101.629244,4.45857365 C97.8347633,4.45857365 95.3976575,6.53924136 95.3976575,9.94096792 C95.3976575,12.3188739 96.8475812,14.1683563 99.2538376,14.7298063 C97.3720217,15.2912563 96.1071947,16.4471828 96.1071947,17.9003475 C96.1071947,19.2544329 96.7550329,20.4433859 98.2666555,20.6415447 C98.8836443,20.7406241 100.271869,20.8397035 101.474997,20.87273 C104.991833,21.0048359 105.855618,21.43418 105.855618,23.2176095 C105.855618,24.934986 104.837586,26.0248595 101.906889,26.0248595 C99.3155365,26.0248595 98.4209027,25.1991977 98.4209027,23.4818212 C98.4209027,22.8212918 98.5751499,22.2598418 98.791096,21.8304977 L96.5082374,21.8965506 C95.7370014,22.2928683 94.9349159,23.0524771 94.9349159,24.2084036 C94.9349159,26.3551242 97.5571184,27.8413155 101.87604,27.8413155 L101.87604,27.8413155 Z M101.629244,13.4087474 C100.055923,13.4087474 99.1921387,12.3188739 99.1921387,9.8418885 C99.1921387,7.2988502 100.025074,6.27502958 101.598395,6.27502958 C103.264265,6.27502958 104.035501,7.2988502 104.035501,9.94096792 C104.035501,12.3519003 103.233415,13.4087474 101.629244,13.4087474 L101.629244,13.4087474 Z M123.899179,16.7774475 C123.899179,13.7720386 124.022577,10.9647885 124.022577,9.97399439 C124.022577,6.10989723 121.801417,4.42554718 118.284581,4.42554718 C115.970873,4.42554718 113.533767,5.31726191 112.052994,6.20897664 L112.052994,9.3795179 L114.767745,9.3795179 C115.01454,7.72819433 115.600679,6.374109 117.76014,6.374109 C119.641956,6.374109 120.228096,7.56306197 120.228096,10.2382062 L120.228096,11.7243974 C119.827053,11.6913709 119.302612,11.6913709 118.932419,11.6913709 C114.089057,11.6913709 111.127511,13.1775621 111.127511,17.1077122 C111.127511,20.3443064 113.225273,21.8965506 116.063421,21.8965506 C118.438828,21.8965506 119.796203,20.4103594 120.320644,19.3204858 C120.53659,20.7075976 121.276977,21.6323388 123.31304,21.6323388 C124.423619,21.6323388 125.441651,21.3681271 125.996941,21.0378623 L125.996941,19.74983 C124.207673,19.6507505 123.899179,19.2544329 123.899179,16.7774475 L123.899179,16.7774475 Z M120.166397,13.4417739 L120.073848,17.6031093 C119.45686,18.6269299 118.377129,19.3865388 117.266549,19.3865388 C115.816626,19.3865388 115.04539,18.7590358 115.04539,16.6453416 C115.04539,14.3995416 116.341066,13.4087474 119.086666,13.4087474 C119.333462,13.4087474 119.919601,13.4417739 120.166397,13.4417739 L120.166397,13.4417739 Z M133.320072,27.8413155 C137.515596,27.8413155 140.693088,25.9588066 140.693088,22.1937888 C140.693088,18.6599564 138.626176,17.5700828 134.831694,17.4710034 L131.931847,17.371924 C131.191461,17.3388975 130.944665,17.0416593 130.944665,16.5792887 C130.944665,15.9848122 131.530804,15.4563887 132.394589,15.1591504 L132.641384,15.1591504 C135.757178,15.1591504 139.274014,14.0032239 139.274014,10.1391267 C139.274014,8.685962 138.564477,7.62911491 137.669843,6.93555901 C138.441079,7.2988502 139.088917,7.46398256 139.767605,7.46398256 C140.631389,7.46398256 141.371776,7.16674431 142.112162,6.67134724 L140.785636,3.99620305 C139.921852,4.72278542 138.93467,5.31726191 137.947488,5.31726191 C137.237951,5.31726191 136.682661,5.15212955 135.911425,4.92094425 C134.985942,4.65673248 134.183856,4.45857365 133.073276,4.45857365 C129.278795,4.45857365 126.841689,6.53924136 126.841689,9.94096792 C126.841689,12.3188739 128.291613,14.1683563 130.697869,14.7298063 C128.816054,15.2912563 127.551227,16.4471828 127.551227,17.9003475 C127.551227,19.2544329 128.199065,20.4433859 129.710687,20.6415447 C130.327676,20.7406241 131.715901,20.8397035 132.919029,20.87273 C136.435865,21.0048359 137.29965,21.43418 137.29965,23.2176095 C137.29965,24.934986 136.281618,26.0248595 133.350921,26.0248595 C130.759568,26.0248595 129.864935,25.1991977 129.864935,23.4818212 C129.864935,22.8212918 130.019182,22.2598418 130.235128,21.8304977 L127.952269,21.8965506 C127.181033,22.2928683 126.378948,23.0524771 126.378948,24.2084036 C126.378948,26.3551242 129.00115,27.8413155 133.320072,27.8413155 L133.320072,27.8413155 Z M133.073276,13.4087474 C131.499955,13.4087474 130.636171,12.3188739 130.636171,9.8418885 C130.636171,7.2988502 131.469105,6.27502958 133.042427,6.27502958 C134.708297,6.27502958 135.479533,7.2988502 135.479533,9.94096792 C135.479533,12.3519003 134.677447,13.4087474 133.073276,13.4087474 L133.073276,13.4087474 Z M150.761986,19.3535123 C147.677042,19.3535123 146.319666,17.8342946 146.227118,13.6069063 L155.821294,13.6069063 L155.821294,12.4509798 C155.821294,7.39792961 153.692683,4.42554718 149.281213,4.42554718 C145.147388,4.42554718 142.216691,7.59608844 142.216691,13.0784827 C142.216691,18.6269299 144.931442,21.8304977 149.558858,21.8304977 C152.026813,21.8304977 153.970328,20.87273 155.543649,19.3535123 L154.864961,18.0985064 C153.630984,18.8581152 152.057662,19.3535123 150.761986,19.3535123 L150.761986,19.3535123 Z M149.281213,6.27502958 C151.224727,6.27502958 151.995963,7.66214139 151.995963,11.6583444 L146.257967,11.6583444 C146.473914,7.5300355 147.461096,6.27502958 149.281213,6.27502958 L149.281213,6.27502958 Z" id="unmortgage"></path>
            </g>
        </g>
    </g>
</svg>